<svg xmlns="http://www.w3.org/2000/svg" xmlns:xlink="http://www.w3.org/1999/xlink" width="2000" zoomAndPan="magnify" viewBox="0 0 1500 374.999991" height="500" preserveAspectRatio="xMidYMid meet" version="1.0"><defs><g/><clipPath id="a10461a711"><rect x="0" width="1195" y="0" height="86"/></clipPath></defs><path fill="#ffffff" d="M 13.640625 100.699219 L 13.640625 64.488281 L 140.957031 64.488281 L 140.957031 100.699219 L 97.933594 100.699219 L 97.933594 245.585938 L 56.664062 245.585938 L 56.664062 100.699219 Z M 13.640625 100.699219 " fill-opacity="1" fill-rule="nonzero"/><path fill="#ffffff" d="M 155.878906 245.585938 L 155.878906 132.96875 L 194.734375 132.96875 L 194.734375 149.222656 L 195.179688 149.222656 C 195.472656 148.632812 195.949219 147.898438 196.605469 147.019531 C 197.257812 146.144531 198.683594 144.609375 200.882812 142.410156 C 203.078125 140.214844 205.417969 138.242188 207.898438 136.484375 C 210.390625 134.734375 213.609375 133.167969 217.5625 131.78125 C 221.511719 130.386719 225.535156 129.691406 229.632812 129.691406 C 233.878906 129.691406 238.050781 130.277344 242.148438 131.449219 C 246.246094 132.613281 249.246094 133.777344 251.148438 134.949219 L 254.21875 136.707031 L 237.984375 169.625 C 233.15625 165.53125 226.421875 163.480469 217.785156 163.480469 C 213.105469 163.480469 209.082031 164.503906 205.714844 166.554688 C 202.34375 168.605469 199.964844 171.09375 198.570312 174.03125 C 197.183594 176.957031 196.199219 179.445312 195.605469 181.492188 C 195.023438 183.542969 194.734375 185.152344 194.734375 186.324219 L 194.734375 245.585938 Z M 155.878906 245.585938 " fill-opacity="1" fill-rule="nonzero"/><path fill="#ffffff" d="M 301.867188 132.96875 L 301.867188 186.527344 C 301.867188 197.660156 303.546875 205.566406 306.90625 210.242188 C 310.273438 214.925781 315.984375 217.261719 324.03125 217.261719 C 332.078125 217.261719 337.785156 214.925781 341.15625 210.242188 C 344.523438 205.566406 346.207031 197.660156 346.207031 186.527344 L 346.207031 132.96875 L 385.050781 132.96875 L 385.050781 195.96875 C 385.050781 214.707031 380.179688 228.207031 370.445312 236.476562 C 360.71875 244.746094 345.246094 248.878906 324.03125 248.878906 C 302.8125 248.878906 287.335938 244.746094 277.601562 236.476562 C 267.875 228.207031 263.011719 214.707031 263.011719 195.96875 L 263.011719 132.96875 Z M 301.867188 132.96875 " fill-opacity="1" fill-rule="nonzero"/><path fill="#ffffff" d="M 458.164062 129.691406 C 464.59375 129.691406 470.957031 130.425781 477.253906 131.890625 C 483.546875 133.347656 488.230469 134.808594 491.304688 136.265625 L 495.914062 138.464844 L 483.175781 163.921875 C 474.402344 159.246094 466.0625 156.90625 458.164062 156.90625 C 453.769531 156.90625 450.65625 157.378906 448.816406 158.332031 C 446.988281 159.28125 446.078125 161.070312 446.078125 163.703125 C 446.078125 164.296875 446.148438 164.886719 446.296875 165.476562 C 446.445312 166.058594 446.734375 166.609375 447.171875 167.125 C 447.613281 167.628906 448.015625 168.070312 448.390625 168.4375 C 448.757812 168.796875 449.378906 169.199219 450.257812 169.640625 C 451.132812 170.078125 451.828125 170.402344 452.335938 170.625 C 452.847656 170.847656 453.695312 171.179688 454.867188 171.621094 C 456.042969 172.058594 456.917969 172.382812 457.5 172.605469 C 458.078125 172.816406 459.066406 173.144531 460.460938 173.585938 C 461.855469 174.023438 462.917969 174.3125 463.644531 174.457031 C 468.183594 175.78125 472.136719 177.246094 475.496094 178.863281 C 478.859375 180.46875 482.410156 182.660156 486.140625 185.4375 C 489.878906 188.214844 492.769531 191.726562 494.820312 195.96875 C 496.867188 200.214844 497.894531 205.046875 497.894531 210.464844 C 497.894531 236.078125 480.109375 248.878906 444.539062 248.878906 C 436.492188 248.878906 428.84375 247.636719 421.601562 245.15625 C 414.355469 242.667969 409.125 240.175781 405.917969 237.679688 L 401.085938 233.734375 L 416.882812 207.171875 C 418.054688 208.195312 419.589844 209.402344 421.492188 210.796875 C 423.398438 212.183594 426.84375 214.085938 431.820312 216.5 C 436.792969 218.921875 441.105469 220.128906 444.761719 220.128906 C 452.808594 220.128906 456.832031 217.417969 456.832031 212 C 456.832031 209.511719 455.808594 207.574219 453.761719 206.1875 C 451.707031 204.792969 448.234375 203.222656 443.335938 201.46875 C 438.433594 199.703125 434.597656 198.09375 431.820312 196.636719 C 424.792969 192.972656 419.234375 188.835938 415.140625 184.230469 C 411.039062 179.617188 408.992188 173.507812 408.992188 165.902344 C 408.992188 154.488281 413.414062 145.601562 422.265625 139.242188 C 431.113281 132.875 443.082031 129.691406 458.164062 129.691406 Z M 458.164062 129.691406 " fill-opacity="1" fill-rule="nonzero"/><path fill="#ffffff" d="M 523.789062 132.96875 L 523.789062 91.054688 L 562.648438 91.054688 L 562.648438 132.96875 L 586.347656 132.96875 L 586.347656 162.609375 L 562.648438 162.609375 L 562.648438 198.394531 C 562.648438 208.785156 565.570312 213.980469 571.425781 213.980469 C 572.890625 213.980469 574.425781 213.691406 576.035156 213.109375 C 577.652344 212.519531 578.894531 211.929688 579.773438 211.335938 L 581.089844 210.464844 L 590.75 241.847656 C 582.40625 246.535156 572.890625 248.878906 562.207031 248.878906 C 554.886719 248.878906 548.589844 247.601562 543.324219 245.046875 C 538.0625 242.480469 534.074219 239.039062 531.363281 234.71875 C 528.65625 230.402344 526.71875 225.863281 525.546875 221.109375 C 524.375 216.359375 523.789062 211.273438 523.789062 205.855469 L 523.789062 162.609375 L 507.550781 162.609375 L 507.550781 132.96875 Z M 523.789062 132.96875 " fill-opacity="1" fill-rule="nonzero"/><path fill="#ffffff" d="M 767.675781 144.167969 L 767.675781 183.457031 C 762.988281 204.96875 752.738281 221.253906 736.929688 232.3125 C 721.128906 243.359375 703.496094 248.878906 684.035156 248.878906 C 659.59375 248.878906 638.78125 239.734375 621.585938 221.445312 C 604.390625 203.15625 595.796875 181.054688 595.796875 155.148438 C 595.796875 128.8125 604.210938 106.570312 621.03125 88.421875 C 637.863281 70.269531 658.867188 61.191406 684.035156 61.191406 C 713.445312 61.191406 736.714844 71.511719 753.847656 92.144531 L 726.835938 121.785156 C 717.183594 106.273438 703.726562 98.515625 686.457031 98.515625 C 673.722656 98.515625 662.855469 104.039062 653.855469 115.085938 C 644.859375 126.132812 640.359375 139.488281 640.359375 155.148438 C 640.359375 170.511719 644.859375 183.652344 653.855469 194.5625 C 662.855469 205.460938 673.722656 210.910156 686.457031 210.910156 C 696.984375 210.910156 706.164062 207.726562 713.992188 201.355469 C 721.824219 194.988281 725.746094 186.535156 725.746094 175.996094 L 684.035156 175.996094 L 684.035156 144.167969 Z M 767.675781 144.167969 " fill-opacity="1" fill-rule="nonzero"/><path fill="#ffffff" d="M 785.886719 245.585938 L 785.886719 132.96875 L 824.746094 132.96875 L 824.746094 149.222656 L 825.191406 149.222656 C 825.484375 148.632812 825.957031 147.898438 826.617188 147.019531 C 827.269531 146.144531 828.695312 144.609375 830.894531 142.410156 C 833.085938 140.214844 835.425781 138.242188 837.910156 136.484375 C 840.402344 134.734375 843.621094 133.167969 847.574219 131.78125 C 851.523438 130.386719 855.546875 129.691406 859.644531 129.691406 C 863.890625 129.691406 868.058594 130.277344 872.160156 131.449219 C 876.253906 132.613281 879.257812 133.777344 881.15625 134.949219 L 884.230469 136.707031 L 867.992188 169.625 C 863.164062 165.53125 856.433594 163.480469 847.796875 163.480469 C 843.113281 163.480469 839.089844 164.503906 835.722656 166.554688 C 832.355469 168.605469 829.972656 171.09375 828.578125 174.03125 C 827.195312 176.957031 826.207031 179.445312 825.617188 181.492188 C 825.035156 183.542969 824.746094 185.152344 824.746094 186.324219 L 824.746094 245.585938 Z M 785.886719 245.585938 " fill-opacity="1" fill-rule="nonzero"/><path fill="#ffffff" d="M 905.851562 232.199219 C 893.34375 221.078125 887.09375 206.8125 887.09375 189.394531 C 887.09375 171.984375 893.605469 157.679688 906.628906 146.480469 C 919.648438 135.289062 935.746094 129.691406 954.929688 129.691406 C 973.800781 129.691406 989.707031 135.324219 1002.65625 146.59375 C 1015.617188 157.851562 1022.09375 172.121094 1022.09375 189.394531 C 1022.09375 206.664062 1015.761719 220.898438 1003.101562 232.089844 C 990.449219 243.285156 974.390625 248.878906 954.929688 248.878906 C 934.722656 248.878906 918.367188 243.320312 905.851562 232.199219 Z M 935.933594 170.292969 C 930.882812 175.265625 928.363281 181.632812 928.363281 189.394531 C 928.363281 197.152344 930.773438 203.476562 935.601562 208.375 C 940.425781 213.277344 946.792969 215.726562 954.707031 215.726562 C 962.308594 215.726562 968.558594 213.238281 973.460938 208.261719 C 978.375 203.289062 980.828125 197 980.828125 189.394531 C 980.828125 181.632812 978.300781 175.265625 973.257812 170.292969 C 968.207031 165.316406 962.023438 162.832031 954.707031 162.832031 C 947.238281 162.832031 940.980469 165.316406 935.933594 170.292969 Z M 935.933594 170.292969 " fill-opacity="1" fill-rule="nonzero"/><path fill="#ffffff" d="M 1109.453125 245.585938 L 1083.125 245.585938 L 1022.753906 132.96875 L 1067.539062 132.96875 L 1094.972656 193.785156 L 1121.96875 132.96875 L 1148.757812 132.96875 L 1175.75 193.785156 L 1203.1875 132.96875 L 1247.96875 132.96875 L 1187.597656 245.585938 L 1161.269531 245.585938 L 1135.355469 187.417969 Z M 1109.453125 245.585938 " fill-opacity="1" fill-rule="nonzero"/><path fill="#ffffff" d="M 1265.578125 220.121094 C 1269.609375 220.121094 1273.039062 221.53125 1275.859375 224.351562 C 1278.679688 227.171875 1280.089844 230.605469 1280.089844 234.648438 C 1280.089844 238.609375 1278.679688 241.996094 1275.859375 244.816406 C 1273.039062 247.636719 1269.609375 249.046875 1265.578125 249.046875 C 1261.617188 249.046875 1258.226562 247.636719 1255.40625 244.816406 C 1252.585938 241.996094 1251.175781 238.609375 1251.175781 234.648438 C 1251.175781 230.605469 1252.585938 227.171875 1255.40625 224.351562 C 1258.226562 221.53125 1261.617188 220.121094 1265.578125 220.121094 Z M 1265.578125 220.121094 " fill-opacity="1" fill-rule="nonzero"/><path fill="#ffffff" d="M 1295.242188 247.144531 L 1295.242188 182.371094 L 1317.59375 182.371094 L 1317.59375 189.199219 L 1317.847656 189.199219 C 1323.652344 183.394531 1329.839844 180.484375 1336.398438 180.484375 C 1341.117188 180.484375 1345.539062 181.453125 1349.65625 183.382812 C 1353.785156 185.316406 1356.902344 188.308594 1359.003906 192.351562 C 1365.570312 184.441406 1372.726562 180.484375 1380.46875 180.484375 C 1387.363281 180.484375 1393.292969 182.425781 1398.257812 186.300781 C 1403.234375 190.164062 1405.71875 196.222656 1405.71875 204.46875 L 1405.71875 247.144531 L 1383.367188 247.144531 L 1383.367188 210.535156 C 1383.367188 207.082031 1382.421875 204.199219 1380.53125 201.886719 C 1378.640625 199.574219 1375.800781 198.417969 1372.007812 198.417969 C 1368.722656 198.417969 1366.214844 199.410156 1364.484375 201.378906 C 1362.761719 203.355469 1361.816406 205.734375 1361.648438 208.507812 L 1361.648438 247.144531 L 1339.3125 247.144531 L 1339.3125 210.535156 C 1339.3125 207.082031 1338.363281 204.199219 1336.460938 201.886719 C 1334.570312 199.574219 1331.730469 198.417969 1327.9375 198.417969 C 1324.492188 198.417969 1321.90625 199.492188 1320.175781 201.632812 C 1318.453125 203.78125 1317.59375 206.324219 1317.59375 209.269531 L 1317.59375 247.144531 Z M 1295.242188 247.144531 " fill-opacity="1" fill-rule="nonzero"/><path fill="#ffffff" d="M 1485.144531 217.855469 L 1438.175781 217.855469 C 1438.175781 222.398438 1439.648438 225.769531 1442.59375 227.960938 C 1445.542969 230.148438 1448.734375 231.242188 1452.179688 231.242188 C 1455.796875 231.242188 1458.660156 230.757812 1460.765625 229.785156 C 1462.875 228.8125 1465.28125 226.898438 1467.972656 224.035156 L 1484.128906 232.128906 C 1477.390625 243.40625 1466.199219 249.046875 1450.546875 249.046875 C 1440.777344 249.046875 1432.398438 245.699219 1425.40625 239.003906 C 1418.425781 232.3125 1414.9375 224.25 1414.9375 214.828125 C 1414.9375 205.398438 1418.425781 197.320312 1425.40625 190.59375 C 1432.398438 183.855469 1440.777344 180.484375 1450.546875 180.484375 C 1460.8125 180.484375 1469.164062 183.457031 1475.609375 189.386719 C 1482.046875 195.324219 1485.269531 203.804688 1485.269531 214.828125 C 1485.269531 216.34375 1485.226562 217.347656 1485.144531 217.855469 Z M 1438.808594 205.484375 L 1463.425781 205.484375 C 1462.917969 202.117188 1461.59375 199.527344 1459.449219 197.722656 C 1457.304688 195.90625 1454.546875 194.996094 1451.179688 194.996094 C 1447.472656 194.996094 1444.527344 195.96875 1442.339844 197.910156 C 1440.15625 199.84375 1438.976562 202.371094 1438.808594 205.484375 Z M 1438.808594 205.484375 " fill-opacity="1" fill-rule="nonzero"/><g transform="matrix(1, 0, 0, 1, 55, 278)"><g clip-path="url(#a10461a711)"><g fill="#d9d9d9" fill-opacity="1"><g transform="translate(1.081887, 65.472877)"><g><path d="M 4.890625 -44.40625 L 22.90625 -44.40625 C 27.175781 -44.40625 30.578125 -43.367188 33.109375 -41.296875 C 35.648438 -39.222656 36.921875 -36.453125 36.921875 -32.984375 C 36.921875 -30.703125 36.316406 -28.710938 35.109375 -27.015625 C 33.898438 -25.328125 32.238281 -24.039062 30.125 -23.15625 C 32.789062 -22.351562 34.894531 -21.007812 36.4375 -19.125 C 37.988281 -17.238281 38.765625 -15.03125 38.765625 -12.5 C 38.765625 -8.6875 37.378906 -5.648438 34.609375 -3.390625 C 31.835938 -1.128906 28.1875 0 23.65625 0 L 4.890625 0 Z M 22.640625 -40.15625 L 9.765625 -40.15625 L 9.765625 -25.0625 L 22.640625 -25.0625 C 25.515625 -25.0625 27.804688 -25.75 29.515625 -27.125 C 31.234375 -28.5 32.09375 -30.328125 32.09375 -32.609375 C 32.09375 -34.890625 31.234375 -36.71875 29.515625 -38.09375 C 27.804688 -39.46875 25.515625 -40.15625 22.640625 -40.15625 Z M 23.28125 -4.25 C 26.457031 -4.25 29.003906 -5.007812 30.921875 -6.53125 C 32.847656 -8.050781 33.8125 -10.082031 33.8125 -12.625 C 33.8125 -15.164062 32.847656 -17.195312 30.921875 -18.71875 C 29.003906 -20.238281 26.457031 -21 23.28125 -21 L 9.765625 -21 L 9.765625 -4.25 Z M 23.28125 -4.25 "/></g></g></g><g fill="#d9d9d9" fill-opacity="1"><g transform="translate(55.040272, 65.472877)"><g><path d="M 8.5 -31.78125 L 8.5 -12.625 C 8.5 -9.832031 9.300781 -7.609375 10.90625 -5.953125 C 12.519531 -4.304688 14.675781 -3.484375 17.375 -3.484375 C 19.28125 -3.484375 20.984375 -3.914062 22.484375 -4.78125 C 23.984375 -5.65625 25.203125 -6.875 26.140625 -8.4375 L 26.140625 -31.78125 L 30.828125 -31.78125 L 30.828125 0 L 26.140625 0 L 26.140625 -3.671875 C 24.910156 -2.234375 23.457031 -1.15625 21.78125 -0.4375 C 20.113281 0.28125 18.242188 0.640625 16.171875 0.640625 C 12.535156 0.640625 9.578125 -0.5 7.296875 -2.78125 C 5.015625 -5.070312 3.875 -8.035156 3.875 -11.671875 L 3.875 -31.78125 Z M 8.5 -31.78125 "/></g></g></g><g fill="#d9d9d9" fill-opacity="1"><g transform="translate(102.152227, 65.472877)"><g><path d="M 6.34375 -37.875 C 5.5 -37.875 4.757812 -38.191406 4.125 -38.828125 C 3.488281 -39.460938 3.171875 -40.203125 3.171875 -41.046875 C 3.171875 -41.929688 3.488281 -42.679688 4.125 -43.296875 C 4.757812 -43.910156 5.5 -44.21875 6.34375 -44.21875 C 7.226562 -44.21875 7.976562 -43.910156 8.59375 -43.296875 C 9.207031 -42.679688 9.515625 -41.929688 9.515625 -41.046875 C 9.515625 -40.203125 9.207031 -39.460938 8.59375 -38.828125 C 7.976562 -38.191406 7.226562 -37.875 6.34375 -37.875 Z M 8.6875 -31.78125 L 8.6875 0 L 4 0 L 4 -31.78125 Z M 8.6875 -31.78125 "/></g></g></g><g fill="#d9d9d9" fill-opacity="1"><g transform="translate(127.140188, 65.472877)"><g><path d="M 8.6875 -45.484375 L 8.6875 0 L 4 0 L 4 -44.40625 Z M 8.6875 -45.484375 "/></g></g></g><g fill="#d9d9d9" fill-opacity="1"><g transform="translate(152.128149, 65.472877)"><g><path d="M 28.796875 0 L 28.796875 -3.359375 C 27.441406 -2.085938 25.882812 -1.125 24.125 -0.46875 C 22.375 0.175781 20.507812 0.5 18.53125 0.5 C 16.28125 0.5 14.179688 0.078125 12.234375 -0.765625 C 10.296875 -1.609375 8.609375 -2.757812 7.171875 -4.21875 C 5.734375 -5.675781 4.597656 -7.421875 3.765625 -9.453125 C 2.941406 -11.484375 2.53125 -13.640625 2.53125 -15.921875 C 2.53125 -18.203125 2.941406 -20.347656 3.765625 -22.359375 C 4.597656 -24.367188 5.734375 -26.101562 7.171875 -27.5625 C 8.609375 -29.019531 10.304688 -30.171875 12.265625 -31.015625 C 14.234375 -31.867188 16.34375 -32.296875 18.59375 -32.296875 C 20.40625 -32.296875 22.1875 -31.988281 23.9375 -31.375 C 25.695312 -30.757812 27.296875 -29.859375 28.734375 -28.671875 L 28.734375 -44.40625 L 33.4375 -45.484375 L 33.4375 0 Z M 7.171875 -15.984375 C 7.171875 -14.253906 7.476562 -12.625 8.09375 -11.09375 C 8.707031 -9.570312 9.539062 -8.257812 10.59375 -7.15625 C 11.65625 -6.0625 12.90625 -5.195312 14.34375 -4.5625 C 15.78125 -3.925781 17.320312 -3.609375 18.96875 -3.609375 C 20.957031 -3.609375 22.804688 -4 24.515625 -4.78125 C 26.234375 -5.570312 27.640625 -6.664062 28.734375 -8.0625 L 28.734375 -23.78125 C 27.640625 -25.132812 26.222656 -26.203125 24.484375 -26.984375 C 22.753906 -27.773438 20.914062 -28.171875 18.96875 -28.171875 C 15.664062 -28.171875 12.875 -27.003906 10.59375 -24.671875 C 8.3125 -22.347656 7.171875 -19.453125 7.171875 -15.984375 Z M 7.171875 -15.984375 "/></g></g></g><g fill="#d9d9d9" fill-opacity="1"><g transform="translate(201.839216, 65.472877)"><g><path d="M 6.34375 -37.875 C 5.5 -37.875 4.757812 -38.191406 4.125 -38.828125 C 3.488281 -39.460938 3.171875 -40.203125 3.171875 -41.046875 C 3.171875 -41.929688 3.488281 -42.679688 4.125 -43.296875 C 4.757812 -43.910156 5.5 -44.21875 6.34375 -44.21875 C 7.226562 -44.21875 7.976562 -43.910156 8.59375 -43.296875 C 9.207031 -42.679688 9.515625 -41.929688 9.515625 -41.046875 C 9.515625 -40.203125 9.207031 -39.460938 8.59375 -38.828125 C 7.976562 -38.191406 7.226562 -37.875 6.34375 -37.875 Z M 8.6875 -31.78125 L 8.6875 0 L 4 0 L 4 -31.78125 Z M 8.6875 -31.78125 "/></g></g></g><g fill="#d9d9d9" fill-opacity="1"><g transform="translate(226.827177, 65.472877)"><g><path d="M 4 0 L 4 -31.78125 L 8.6875 -31.78125 L 8.6875 -28.046875 C 9.914062 -29.484375 11.375 -30.570312 13.0625 -31.3125 C 14.757812 -32.050781 16.644531 -32.421875 18.71875 -32.421875 C 22.3125 -32.421875 25.25 -31.273438 27.53125 -28.984375 C 29.8125 -26.703125 30.953125 -23.742188 30.953125 -20.109375 L 30.953125 0 L 26.328125 0 L 26.328125 -19.15625 C 26.328125 -21.945312 25.519531 -24.164062 23.90625 -25.8125 C 22.300781 -27.46875 20.144531 -28.296875 17.4375 -28.296875 C 15.539062 -28.296875 13.84375 -27.867188 12.34375 -27.015625 C 10.84375 -26.171875 9.625 -24.96875 8.6875 -23.40625 L 8.6875 0 Z M 4 0 "/></g></g></g><g fill="#d9d9d9" fill-opacity="1"><g transform="translate(273.939133, 65.472877)"><g><path d="M 18.390625 0.25 C 16.191406 0.25 14.128906 -0.171875 12.203125 -1.015625 C 10.285156 -1.859375 8.609375 -3.007812 7.171875 -4.46875 C 5.734375 -5.925781 4.597656 -7.648438 3.765625 -9.640625 C 2.941406 -11.628906 2.53125 -13.765625 2.53125 -16.046875 C 2.53125 -18.328125 2.941406 -20.460938 3.765625 -22.453125 C 4.597656 -24.441406 5.734375 -26.164062 7.171875 -27.625 C 8.609375 -29.082031 10.296875 -30.234375 12.234375 -31.078125 C 14.179688 -31.929688 16.28125 -32.359375 18.53125 -32.359375 C 20.34375 -32.359375 22.101562 -32.03125 23.8125 -31.375 C 25.53125 -30.71875 27.109375 -29.796875 28.546875 -28.609375 L 28.546875 -31.78125 L 33.171875 -31.78125 L 33.171875 0.765625 C 33.171875 4.816406 31.988281 7.929688 29.625 10.109375 C 27.257812 12.296875 23.875 13.390625 19.46875 13.390625 C 17.269531 13.390625 15.09375 13.101562 12.9375 12.53125 C 10.78125 11.957031 8.816406 11.144531 7.046875 10.09375 L 9.078125 6.40625 C 10.972656 7.414062 12.734375 8.15625 14.359375 8.625 C 15.992188 9.09375 17.632812 9.328125 19.28125 9.328125 C 22.28125 9.328125 24.5625 8.609375 26.125 7.171875 C 27.695312 5.734375 28.484375 3.617188 28.484375 0.828125 L 28.484375 -3.421875 C 27.046875 -2.242188 25.46875 -1.335938 23.75 -0.703125 C 22.039062 -0.0664062 20.253906 0.25 18.390625 0.25 Z M 7.171875 -16.046875 C 7.171875 -14.359375 7.460938 -12.765625 8.046875 -11.265625 C 8.640625 -9.765625 9.453125 -8.472656 10.484375 -7.390625 C 11.523438 -6.304688 12.765625 -5.445312 14.203125 -4.8125 C 15.640625 -4.1875 17.164062 -3.875 18.78125 -3.875 C 20.8125 -3.875 22.671875 -4.253906 24.359375 -5.015625 C 26.046875 -5.773438 27.421875 -6.851562 28.484375 -8.25 L 28.484375 -23.859375 C 27.421875 -25.203125 26.035156 -26.253906 24.328125 -27.015625 C 22.617188 -27.785156 20.769531 -28.171875 18.78125 -28.171875 C 17.125 -28.171875 15.585938 -27.863281 14.171875 -27.25 C 12.753906 -26.632812 11.523438 -25.773438 10.484375 -24.671875 C 9.453125 -23.578125 8.640625 -22.289062 8.046875 -20.8125 C 7.460938 -19.332031 7.171875 -17.742188 7.171875 -16.046875 Z M 7.171875 -16.046875 "/></g></g></g><g fill="#d9d9d9" fill-opacity="1"><g transform="translate(323.396641, 65.472877)"><g/></g></g><g fill="#d9d9d9" fill-opacity="1"><g transform="translate(349.335462, 65.472877)"><g><path d="M 7.921875 -7.109375 L 7.921875 -27.78125 L 1.078125 -27.78125 L 1.078125 -31.78125 L 7.921875 -31.78125 L 7.921875 -39.84375 L 12.5625 -41.046875 L 12.5625 -31.78125 L 22.140625 -31.78125 L 22.140625 -27.78125 L 12.5625 -27.78125 L 12.5625 -8.3125 C 12.5625 -6.613281 12.941406 -5.394531 13.703125 -4.65625 C 14.460938 -3.914062 15.707031 -3.546875 17.4375 -3.546875 C 18.332031 -3.546875 19.128906 -3.609375 19.828125 -3.734375 C 20.523438 -3.867188 21.273438 -4.082031 22.078125 -4.375 L 22.078125 -0.25 C 21.273438 0.0390625 20.375 0.25 19.375 0.375 C 18.382812 0.507812 17.425781 0.578125 16.5 0.578125 C 13.75 0.578125 11.628906 -0.078125 10.140625 -1.390625 C 8.660156 -2.703125 7.921875 -4.609375 7.921875 -7.109375 Z M 7.921875 -7.109375 "/></g></g></g><g fill="#d9d9d9" fill-opacity="1"><g transform="translate(384.78319, 65.472877)"><g><path d="M 4 0 L 4 -31.78125 L 8.6875 -31.78125 L 8.6875 -27.28125 C 9.625 -28.925781 10.851562 -30.203125 12.375 -31.109375 C 13.894531 -32.023438 15.628906 -32.484375 17.578125 -32.484375 C 18.160156 -32.484375 18.6875 -32.453125 19.15625 -32.390625 C 19.625 -32.328125 20.085938 -32.207031 20.546875 -32.03125 L 20.546875 -27.71875 C 20.003906 -27.882812 19.457031 -28.019531 18.90625 -28.125 C 18.351562 -28.238281 17.800781 -28.296875 17.25 -28.296875 C 15.3125 -28.296875 13.597656 -27.734375 12.109375 -26.609375 C 10.628906 -25.492188 9.488281 -23.878906 8.6875 -21.765625 L 8.6875 0 Z M 4 0 "/></g></g></g><g fill="#d9d9d9" fill-opacity="1"><g transform="translate(419.026457, 65.472877)"><g><path d="M 8.5 -31.78125 L 8.5 -12.625 C 8.5 -9.832031 9.300781 -7.609375 10.90625 -5.953125 C 12.519531 -4.304688 14.675781 -3.484375 17.375 -3.484375 C 19.28125 -3.484375 20.984375 -3.914062 22.484375 -4.78125 C 23.984375 -5.65625 25.203125 -6.875 26.140625 -8.4375 L 26.140625 -31.78125 L 30.828125 -31.78125 L 30.828125 0 L 26.140625 0 L 26.140625 -3.671875 C 24.910156 -2.234375 23.457031 -1.15625 21.78125 -0.4375 C 20.113281 0.28125 18.242188 0.640625 16.171875 0.640625 C 12.535156 0.640625 9.578125 -0.5 7.296875 -2.78125 C 5.015625 -5.070312 3.875 -8.035156 3.875 -11.671875 L 3.875 -31.78125 Z M 8.5 -31.78125 "/></g></g></g><g fill="#d9d9d9" fill-opacity="1"><g transform="translate(466.138413, 65.472877)"><g><path d="M 0.765625 -4.375 L 3.609375 -7.421875 C 5.046875 -6.066406 6.664062 -5.019531 8.46875 -4.28125 C 10.269531 -3.539062 12.097656 -3.171875 13.953125 -3.171875 C 16.492188 -3.171875 18.566406 -3.695312 20.171875 -4.75 C 21.773438 -5.8125 22.578125 -7.1875 22.578125 -8.875 C 22.578125 -10.226562 22.101562 -11.296875 21.15625 -12.078125 C 20.207031 -12.867188 18.71875 -13.410156 16.6875 -13.703125 L 11.171875 -14.46875 C 7.992188 -14.925781 5.632812 -15.863281 4.09375 -17.28125 C 2.550781 -18.695312 1.78125 -20.613281 1.78125 -23.03125 C 1.78125 -25.695312 2.898438 -27.90625 5.140625 -29.65625 C 7.378906 -31.414062 10.234375 -32.296875 13.703125 -32.296875 C 15.984375 -32.296875 18.148438 -31.957031 20.203125 -31.28125 C 22.253906 -30.601562 24.253906 -29.546875 26.203125 -28.109375 L 23.71875 -24.9375 C 21.945312 -26.113281 20.222656 -27 18.546875 -27.59375 C 16.878906 -28.1875 15.179688 -28.484375 13.453125 -28.484375 C 11.296875 -28.484375 9.53125 -27.992188 8.15625 -27.015625 C 6.78125 -26.046875 6.09375 -24.78125 6.09375 -23.21875 C 6.09375 -21.863281 6.554688 -20.816406 7.484375 -20.078125 C 8.410156 -19.335938 9.910156 -18.820312 11.984375 -18.53125 L 17.515625 -17.765625 C 20.679688 -17.335938 23.054688 -16.394531 24.640625 -14.9375 C 26.234375 -13.476562 27.03125 -11.546875 27.03125 -9.140625 C 27.03125 -7.785156 26.703125 -6.503906 26.046875 -5.296875 C 25.390625 -4.085938 24.476562 -3.050781 23.3125 -2.1875 C 22.144531 -1.320312 20.78125 -0.644531 19.21875 -0.15625 C 17.65625 0.332031 15.960938 0.578125 14.140625 0.578125 C 11.523438 0.578125 9.0625 0.144531 6.75 -0.71875 C 4.445312 -1.59375 2.453125 -2.8125 0.765625 -4.375 Z M 0.765625 -4.375 "/></g></g></g><g fill="#d9d9d9" fill-opacity="1"><g transform="translate(506.720951, 65.472877)"><g><path d="M 7.921875 -7.109375 L 7.921875 -27.78125 L 1.078125 -27.78125 L 1.078125 -31.78125 L 7.921875 -31.78125 L 7.921875 -39.84375 L 12.5625 -41.046875 L 12.5625 -31.78125 L 22.140625 -31.78125 L 22.140625 -27.78125 L 12.5625 -27.78125 L 12.5625 -8.3125 C 12.5625 -6.613281 12.941406 -5.394531 13.703125 -4.65625 C 14.460938 -3.914062 15.707031 -3.546875 17.4375 -3.546875 C 18.332031 -3.546875 19.128906 -3.609375 19.828125 -3.734375 C 20.523438 -3.867188 21.273438 -4.082031 22.078125 -4.375 L 22.078125 -0.25 C 21.273438 0.0390625 20.375 0.25 19.375 0.375 C 18.382812 0.507812 17.425781 0.578125 16.5 0.578125 C 13.75 0.578125 11.628906 -0.078125 10.140625 -1.390625 C 8.660156 -2.703125 7.921875 -4.609375 7.921875 -7.109375 Z M 7.921875 -7.109375 "/></g></g></g><g fill="#d9d9d9" fill-opacity="1"><g transform="translate(542.168679, 65.472877)"><g><path d="M 4.828125 -4.6875 L 9.890625 -4.6875 L 4.828125 8.6875 L 1.140625 8.6875 Z M 4.828125 -4.6875 "/></g></g></g><g fill="#d9d9d9" fill-opacity="1"><g transform="translate(567.029818, 65.472877)"><g/></g></g><g fill="#d9d9d9" fill-opacity="1"><g transform="translate(592.96864, 65.472877)"><g><path d="M 28.796875 0 L 28.796875 -3.359375 C 27.441406 -2.085938 25.882812 -1.125 24.125 -0.46875 C 22.375 0.175781 20.507812 0.5 18.53125 0.5 C 16.28125 0.5 14.179688 0.078125 12.234375 -0.765625 C 10.296875 -1.609375 8.609375 -2.757812 7.171875 -4.21875 C 5.734375 -5.675781 4.597656 -7.421875 3.765625 -9.453125 C 2.941406 -11.484375 2.53125 -13.640625 2.53125 -15.921875 C 2.53125 -18.203125 2.941406 -20.347656 3.765625 -22.359375 C 4.597656 -24.367188 5.734375 -26.101562 7.171875 -27.5625 C 8.609375 -29.019531 10.304688 -30.171875 12.265625 -31.015625 C 14.234375 -31.867188 16.34375 -32.296875 18.59375 -32.296875 C 20.40625 -32.296875 22.1875 -31.988281 23.9375 -31.375 C 25.695312 -30.757812 27.296875 -29.859375 28.734375 -28.671875 L 28.734375 -44.40625 L 33.4375 -45.484375 L 33.4375 0 Z M 7.171875 -15.984375 C 7.171875 -14.253906 7.476562 -12.625 8.09375 -11.09375 C 8.707031 -9.570312 9.539062 -8.257812 10.59375 -7.15625 C 11.65625 -6.0625 12.90625 -5.195312 14.34375 -4.5625 C 15.78125 -3.925781 17.320312 -3.609375 18.96875 -3.609375 C 20.957031 -3.609375 22.804688 -4 24.515625 -4.78125 C 26.234375 -5.570312 27.640625 -6.664062 28.734375 -8.0625 L 28.734375 -23.78125 C 27.640625 -25.132812 26.222656 -26.203125 24.484375 -26.984375 C 22.753906 -27.773438 20.914062 -28.171875 18.96875 -28.171875 C 15.664062 -28.171875 12.875 -27.003906 10.59375 -24.671875 C 8.3125 -22.347656 7.171875 -19.453125 7.171875 -15.984375 Z M 7.171875 -15.984375 "/></g></g></g><g fill="#d9d9d9" fill-opacity="1"><g transform="translate(642.679707, 65.472877)"><g><path d="M 4 0 L 4 -31.78125 L 8.6875 -31.78125 L 8.6875 -27.28125 C 9.625 -28.925781 10.851562 -30.203125 12.375 -31.109375 C 13.894531 -32.023438 15.628906 -32.484375 17.578125 -32.484375 C 18.160156 -32.484375 18.6875 -32.453125 19.15625 -32.390625 C 19.625 -32.328125 20.085938 -32.207031 20.546875 -32.03125 L 20.546875 -27.71875 C 20.003906 -27.882812 19.457031 -28.019531 18.90625 -28.125 C 18.351562 -28.238281 17.800781 -28.296875 17.25 -28.296875 C 15.3125 -28.296875 13.597656 -27.734375 12.109375 -26.609375 C 10.628906 -25.492188 9.488281 -23.878906 8.6875 -21.765625 L 8.6875 0 Z M 4 0 "/></g></g></g><g fill="#d9d9d9" fill-opacity="1"><g transform="translate(676.922974, 65.472877)"><g><path d="M 6.34375 -37.875 C 5.5 -37.875 4.757812 -38.191406 4.125 -38.828125 C 3.488281 -39.460938 3.171875 -40.203125 3.171875 -41.046875 C 3.171875 -41.929688 3.488281 -42.679688 4.125 -43.296875 C 4.757812 -43.910156 5.5 -44.21875 6.34375 -44.21875 C 7.226562 -44.21875 7.976562 -43.910156 8.59375 -43.296875 C 9.207031 -42.679688 9.515625 -41.929688 9.515625 -41.046875 C 9.515625 -40.203125 9.207031 -39.460938 8.59375 -38.828125 C 7.976562 -38.191406 7.226562 -37.875 6.34375 -37.875 Z M 8.6875 -31.78125 L 8.6875 0 L 4 0 L 4 -31.78125 Z M 8.6875 -31.78125 "/></g></g></g><g fill="#d9d9d9" fill-opacity="1"><g transform="translate(701.910935, 65.472877)"><g><path d="M 14.078125 0 L 0.3125 -31.78125 L 5.515625 -31.78125 L 16.359375 -6.09375 L 27.21875 -31.78125 L 32.21875 -31.78125 L 18.53125 0 Z M 14.078125 0 "/></g></g></g><g fill="#d9d9d9" fill-opacity="1"><g transform="translate(746.740791, 65.472877)"><g><path d="M 6.34375 -37.875 C 5.5 -37.875 4.757812 -38.191406 4.125 -38.828125 C 3.488281 -39.460938 3.171875 -40.203125 3.171875 -41.046875 C 3.171875 -41.929688 3.488281 -42.679688 4.125 -43.296875 C 4.757812 -43.910156 5.5 -44.21875 6.34375 -44.21875 C 7.226562 -44.21875 7.976562 -43.910156 8.59375 -43.296875 C 9.207031 -42.679688 9.515625 -41.929688 9.515625 -41.046875 C 9.515625 -40.203125 9.207031 -39.460938 8.59375 -38.828125 C 7.976562 -38.191406 7.226562 -37.875 6.34375 -37.875 Z M 8.6875 -31.78125 L 8.6875 0 L 4 0 L 4 -31.78125 Z M 8.6875 -31.78125 "/></g></g></g><g fill="#d9d9d9" fill-opacity="1"><g transform="translate(771.728752, 65.472877)"><g><path d="M 4 0 L 4 -31.78125 L 8.6875 -31.78125 L 8.6875 -28.046875 C 9.914062 -29.484375 11.375 -30.570312 13.0625 -31.3125 C 14.757812 -32.050781 16.644531 -32.421875 18.71875 -32.421875 C 22.3125 -32.421875 25.25 -31.273438 27.53125 -28.984375 C 29.8125 -26.703125 30.953125 -23.742188 30.953125 -20.109375 L 30.953125 0 L 26.328125 0 L 26.328125 -19.15625 C 26.328125 -21.945312 25.519531 -24.164062 23.90625 -25.8125 C 22.300781 -27.46875 20.144531 -28.296875 17.4375 -28.296875 C 15.539062 -28.296875 13.84375 -27.867188 12.34375 -27.015625 C 10.84375 -26.171875 9.625 -24.96875 8.6875 -23.40625 L 8.6875 0 Z M 4 0 "/></g></g></g><g fill="#d9d9d9" fill-opacity="1"><g transform="translate(818.840708, 65.472877)"><g><path d="M 18.390625 0.25 C 16.191406 0.25 14.128906 -0.171875 12.203125 -1.015625 C 10.285156 -1.859375 8.609375 -3.007812 7.171875 -4.46875 C 5.734375 -5.925781 4.597656 -7.648438 3.765625 -9.640625 C 2.941406 -11.628906 2.53125 -13.765625 2.53125 -16.046875 C 2.53125 -18.328125 2.941406 -20.460938 3.765625 -22.453125 C 4.597656 -24.441406 5.734375 -26.164062 7.171875 -27.625 C 8.609375 -29.082031 10.296875 -30.234375 12.234375 -31.078125 C 14.179688 -31.929688 16.28125 -32.359375 18.53125 -32.359375 C 20.34375 -32.359375 22.101562 -32.03125 23.8125 -31.375 C 25.53125 -30.71875 27.109375 -29.796875 28.546875 -28.609375 L 28.546875 -31.78125 L 33.171875 -31.78125 L 33.171875 0.765625 C 33.171875 4.816406 31.988281 7.929688 29.625 10.109375 C 27.257812 12.296875 23.875 13.390625 19.46875 13.390625 C 17.269531 13.390625 15.09375 13.101562 12.9375 12.53125 C 10.78125 11.957031 8.816406 11.144531 7.046875 10.09375 L 9.078125 6.40625 C 10.972656 7.414062 12.734375 8.15625 14.359375 8.625 C 15.992188 9.09375 17.632812 9.328125 19.28125 9.328125 C 22.28125 9.328125 24.5625 8.609375 26.125 7.171875 C 27.695312 5.734375 28.484375 3.617188 28.484375 0.828125 L 28.484375 -3.421875 C 27.046875 -2.242188 25.46875 -1.335938 23.75 -0.703125 C 22.039062 -0.0664062 20.253906 0.25 18.390625 0.25 Z M 7.171875 -16.046875 C 7.171875 -14.359375 7.460938 -12.765625 8.046875 -11.265625 C 8.640625 -9.765625 9.453125 -8.472656 10.484375 -7.390625 C 11.523438 -6.304688 12.765625 -5.445312 14.203125 -4.8125 C 15.640625 -4.1875 17.164062 -3.875 18.78125 -3.875 C 20.8125 -3.875 22.671875 -4.253906 24.359375 -5.015625 C 26.046875 -5.773438 27.421875 -6.851562 28.484375 -8.25 L 28.484375 -23.859375 C 27.421875 -25.203125 26.035156 -26.253906 24.328125 -27.015625 C 22.617188 -27.785156 20.769531 -28.171875 18.78125 -28.171875 C 17.125 -28.171875 15.585938 -27.863281 14.171875 -27.25 C 12.753906 -26.632812 11.523438 -25.773438 10.484375 -24.671875 C 9.453125 -23.578125 8.640625 -22.289062 8.046875 -20.8125 C 7.460938 -19.332031 7.171875 -17.742188 7.171875 -16.046875 Z M 7.171875 -16.046875 "/></g></g></g><g fill="#d9d9d9" fill-opacity="1"><g transform="translate(868.298173, 65.472877)"><g/></g></g><g fill="#d9d9d9" fill-opacity="1"><g transform="translate(894.237038, 65.472877)"><g><path d="M 18.390625 0.25 C 16.191406 0.25 14.128906 -0.171875 12.203125 -1.015625 C 10.285156 -1.859375 8.609375 -3.007812 7.171875 -4.46875 C 5.734375 -5.925781 4.597656 -7.648438 3.765625 -9.640625 C 2.941406 -11.628906 2.53125 -13.765625 2.53125 -16.046875 C 2.53125 -18.328125 2.941406 -20.460938 3.765625 -22.453125 C 4.597656 -24.441406 5.734375 -26.164062 7.171875 -27.625 C 8.609375 -29.082031 10.296875 -30.234375 12.234375 -31.078125 C 14.179688 -31.929688 16.28125 -32.359375 18.53125 -32.359375 C 20.34375 -32.359375 22.101562 -32.03125 23.8125 -31.375 C 25.53125 -30.71875 27.109375 -29.796875 28.546875 -28.609375 L 28.546875 -31.78125 L 33.171875 -31.78125 L 33.171875 0.765625 C 33.171875 4.816406 31.988281 7.929688 29.625 10.109375 C 27.257812 12.296875 23.875 13.390625 19.46875 13.390625 C 17.269531 13.390625 15.09375 13.101562 12.9375 12.53125 C 10.78125 11.957031 8.816406 11.144531 7.046875 10.09375 L 9.078125 6.40625 C 10.972656 7.414062 12.734375 8.15625 14.359375 8.625 C 15.992188 9.09375 17.632812 9.328125 19.28125 9.328125 C 22.28125 9.328125 24.5625 8.609375 26.125 7.171875 C 27.695312 5.734375 28.484375 3.617188 28.484375 0.828125 L 28.484375 -3.421875 C 27.046875 -2.242188 25.46875 -1.335938 23.75 -0.703125 C 22.039062 -0.0664062 20.253906 0.25 18.390625 0.25 Z M 7.171875 -16.046875 C 7.171875 -14.359375 7.460938 -12.765625 8.046875 -11.265625 C 8.640625 -9.765625 9.453125 -8.472656 10.484375 -7.390625 C 11.523438 -6.304688 12.765625 -5.445312 14.203125 -4.8125 C 15.640625 -4.1875 17.164062 -3.875 18.78125 -3.875 C 20.8125 -3.875 22.671875 -4.253906 24.359375 -5.015625 C 26.046875 -5.773438 27.421875 -6.851562 28.484375 -8.25 L 28.484375 -23.859375 C 27.421875 -25.203125 26.035156 -26.253906 24.328125 -27.015625 C 22.617188 -27.785156 20.769531 -28.171875 18.78125 -28.171875 C 17.125 -28.171875 15.585938 -27.863281 14.171875 -27.25 C 12.753906 -26.632812 11.523438 -25.773438 10.484375 -24.671875 C 9.453125 -23.578125 8.640625 -22.289062 8.046875 -20.8125 C 7.460938 -19.332031 7.171875 -17.742188 7.171875 -16.046875 Z M 7.171875 -16.046875 "/></g></g></g><g fill="#d9d9d9" fill-opacity="1"><g transform="translate(943.694591, 65.472877)"><g><path d="M 4 0 L 4 -31.78125 L 8.6875 -31.78125 L 8.6875 -27.28125 C 9.625 -28.925781 10.851562 -30.203125 12.375 -31.109375 C 13.894531 -32.023438 15.628906 -32.484375 17.578125 -32.484375 C 18.160156 -32.484375 18.6875 -32.453125 19.15625 -32.390625 C 19.625 -32.328125 20.085938 -32.207031 20.546875 -32.03125 L 20.546875 -27.71875 C 20.003906 -27.882812 19.457031 -28.019531 18.90625 -28.125 C 18.351562 -28.238281 17.800781 -28.296875 17.25 -28.296875 C 15.3125 -28.296875 13.597656 -27.734375 12.109375 -26.609375 C 10.628906 -25.492188 9.488281 -23.878906 8.6875 -21.765625 L 8.6875 0 Z M 4 0 "/></g></g></g><g fill="#d9d9d9" fill-opacity="1"><g transform="translate(977.937772, 65.472877)"><g><path d="M 2.53125 -15.921875 C 2.53125 -18.203125 2.953125 -20.359375 3.796875 -22.390625 C 4.648438 -24.421875 5.804688 -26.175781 7.265625 -27.65625 C 8.722656 -29.132812 10.445312 -30.296875 12.4375 -31.140625 C 14.425781 -31.992188 16.539062 -32.421875 18.78125 -32.421875 C 21.019531 -32.421875 23.125 -31.992188 25.09375 -31.140625 C 27.0625 -30.296875 28.773438 -29.132812 30.234375 -27.65625 C 31.691406 -26.175781 32.84375 -24.421875 33.6875 -22.390625 C 34.53125 -20.359375 34.953125 -18.203125 34.953125 -15.921875 C 34.953125 -13.597656 34.53125 -11.421875 33.6875 -9.390625 C 32.84375 -7.359375 31.691406 -5.601562 30.234375 -4.125 C 28.773438 -2.644531 27.0625 -1.476562 25.09375 -0.625 C 23.125 0.21875 21.019531 0.640625 18.78125 0.640625 C 16.539062 0.640625 14.425781 0.21875 12.4375 -0.625 C 10.445312 -1.476562 8.722656 -2.644531 7.265625 -4.125 C 5.804688 -5.601562 4.648438 -7.359375 3.796875 -9.390625 C 2.953125 -11.421875 2.53125 -13.597656 2.53125 -15.921875 Z M 18.78125 -3.546875 C 20.382812 -3.546875 21.894531 -3.863281 23.3125 -4.5 C 24.726562 -5.132812 25.953125 -6.007812 26.984375 -7.125 C 28.023438 -8.25 28.84375 -9.5625 29.4375 -11.0625 C 30.03125 -12.570312 30.328125 -14.191406 30.328125 -15.921875 C 30.328125 -17.660156 30.03125 -19.28125 29.4375 -20.78125 C 28.84375 -22.28125 28.023438 -23.578125 26.984375 -24.671875 C 25.953125 -25.773438 24.726562 -26.644531 23.3125 -27.28125 C 21.894531 -27.914062 20.382812 -28.234375 18.78125 -28.234375 C 17.164062 -28.234375 15.648438 -27.914062 14.234375 -27.28125 C 12.816406 -26.644531 11.59375 -25.773438 10.5625 -24.671875 C 9.53125 -23.578125 8.707031 -22.28125 8.09375 -20.78125 C 7.476562 -19.28125 7.171875 -17.660156 7.171875 -15.921875 C 7.171875 -14.191406 7.460938 -12.570312 8.046875 -11.0625 C 8.640625 -9.5625 9.453125 -8.25 10.484375 -7.125 C 11.523438 -6.007812 12.765625 -5.132812 14.203125 -4.5 C 15.640625 -3.863281 17.164062 -3.546875 18.78125 -3.546875 Z M 18.78125 -3.546875 "/></g></g></g><g fill="#d9d9d9" fill-opacity="1"><g transform="translate(1027.712292, 65.472877)"><g><path d="M 14.40625 0 L 9.828125 0 L 0.890625 -31.78125 L 5.515625 -31.78125 L 12.375 -6.40625 L 20.296875 -31.78125 L 24.484375 -31.78125 L 32.359375 -6.40625 L 39.265625 -31.78125 L 43.703125 -31.78125 L 34.703125 0 L 30.203125 0 L 22.328125 -25.4375 Z M 14.40625 0 "/></g></g></g><g fill="#d9d9d9" fill-opacity="1"><g transform="translate(1084.586753, 65.472877)"><g><path d="M 7.921875 -7.109375 L 7.921875 -27.78125 L 1.078125 -27.78125 L 1.078125 -31.78125 L 7.921875 -31.78125 L 7.921875 -39.84375 L 12.5625 -41.046875 L 12.5625 -31.78125 L 22.140625 -31.78125 L 22.140625 -27.78125 L 12.5625 -27.78125 L 12.5625 -8.3125 C 12.5625 -6.613281 12.941406 -5.394531 13.703125 -4.65625 C 14.460938 -3.914062 15.707031 -3.546875 17.4375 -3.546875 C 18.332031 -3.546875 19.128906 -3.609375 19.828125 -3.734375 C 20.523438 -3.867188 21.273438 -4.082031 22.078125 -4.375 L 22.078125 -0.25 C 21.273438 0.0390625 20.375 0.25 19.375 0.375 C 18.382812 0.507812 17.425781 0.578125 16.5 0.578125 C 13.75 0.578125 11.628906 -0.078125 10.140625 -1.390625 C 8.660156 -2.703125 7.921875 -4.609375 7.921875 -7.109375 Z M 7.921875 -7.109375 "/></g></g></g><g fill="#d9d9d9" fill-opacity="1"><g transform="translate(1120.034395, 65.472877)"><g><path d="M 4 0 L 4 -44.40625 L 8.6875 -45.484375 L 8.6875 -28.046875 C 9.914062 -29.484375 11.375 -30.570312 13.0625 -31.3125 C 14.757812 -32.050781 16.644531 -32.421875 18.71875 -32.421875 C 22.3125 -32.421875 25.25 -31.273438 27.53125 -28.984375 C 29.8125 -26.703125 30.953125 -23.742188 30.953125 -20.109375 L 30.953125 0 L 26.328125 0 L 26.328125 -19.15625 C 26.328125 -21.945312 25.519531 -24.164062 23.90625 -25.8125 C 22.300781 -27.46875 20.144531 -28.296875 17.4375 -28.296875 C 15.539062 -28.296875 13.84375 -27.867188 12.34375 -27.015625 C 10.84375 -26.171875 9.625 -24.96875 8.6875 -23.40625 L 8.6875 0 Z M 4 0 "/></g></g></g><g fill="#d9d9d9" fill-opacity="1"><g transform="translate(1167.146351, 65.472877)"><g><path d="M 6.28125 -6.09375 C 7.164062 -6.09375 7.925781 -5.773438 8.5625 -5.140625 C 9.195312 -4.503906 9.515625 -3.742188 9.515625 -2.859375 C 9.515625 -1.960938 9.195312 -1.195312 8.5625 -0.5625 C 7.925781 0.0625 7.164062 0.375 6.28125 0.375 C 5.394531 0.375 4.632812 0.0625 4 -0.5625 C 3.363281 -1.195312 3.046875 -1.960938 3.046875 -2.859375 C 3.046875 -3.742188 3.363281 -4.503906 4 -5.140625 C 4.632812 -5.773438 5.394531 -6.09375 6.28125 -6.09375 Z M 6.28125 -6.09375 "/></g></g></g></g></g></svg>